<?xml version="1.0" encoding="iso-8859-1"?>
<!-- Generator: Adobe Illustrator 16.0.0, SVG Export Plug-In . SVG Version: 6.00 Build 0)  -->
<!DOCTYPE svg PUBLIC "-//W3C//DTD SVG 1.1//EN" "http://www.w3.org/Graphics/SVG/1.1/DTD/svg11.dtd">
<svg version="1.1" id="Capa_1" xmlns="http://www.w3.org/2000/svg" xmlns:xlink="http://www.w3.org/1999/xlink" x="0px" y="0px"
	 width="33.416px" height="33.416px" viewBox="0 0 33.416 33.416" style="enable-background:new 0 0 33.416 33.416;"
	 xml:space="preserve">
<g>
	<g>
		<polygon points="21.338,15.207 21.338,17.354 19.188,17.354 19.188,19.221 21.338,19.221 21.338,21.368 23.203,21.368 
			23.203,19.221 25.352,19.221 25.352,17.354 23.203,17.354 23.203,15.207 		"/>
		<path d="M12.086,8.654c-0.436,0.384-0.299,1.259,0.507,0.882C13.404,9.159,15.525,8.4,17.177,8.4c5.447,0,9.881,4.432,9.881,9.877
			c0,5.447-4.435,8.863-9.881,8.863S7.3,23.725,7.3,18.277c0-1.728,0.908-4.418,1.23-4.762c0.322-0.348-0.494-1.226-0.818-0.612
			c-0.322,0.612-1.43,3.42-1.43,5.375c0,6.008,4.887,9.882,10.895,9.882c6.01,0,10.898-3.874,10.898-9.882
			c0-6.007-4.89-10.895-10.898-10.895C15.34,7.384,12.517,8.274,12.086,8.654z"/>
		<path d="M24.623,0l-0.244,0.022L24.357,0H2.697v33.416h28.021V8.991V6.362V6.098L24.623,0z M29.219,31.916H4.197V1.5h19.15v5.97
			h5.871V31.916z"/>
		<polygon points="14.219,18.854 17.639,18.854 17.639,16.814 14.219,16.814 14.219,15.746 18.203,15.746 18.203,13.55 
			11.579,13.55 11.579,22.118 14.219,22.118 		"/>
	</g>
</g>
<g>
</g>
<g>
</g>
<g>
</g>
<g>
</g>
<g>
</g>
<g>
</g>
<g>
</g>
<g>
</g>
<g>
</g>
<g>
</g>
<g>
</g>
<g>
</g>
<g>
</g>
<g>
</g>
<g>
</g>
</svg>
